<svg width="214" height="24" viewBox="0 0 214 24" fill="none" xmlns="http://www.w3.org/2000/svg">
<path d="M36.996 12.274H41.868V13.772H36.996V12.274ZM37.136 16.474H42.666V18H35.316V8.2H42.47V9.726H37.136V16.474ZM46.1955 18L50.3255 12.316V13.688L46.3915 8.2H48.4495L51.3755 12.26L50.5355 12.274L53.4335 8.2H55.4075L51.5015 13.59V12.274L55.6595 18H53.5595L50.4795 13.688H51.3055L48.2675 18H46.1955ZM59.5644 18V8.2H63.5964C64.4644 8.2 65.2064 8.34 65.8224 8.62C66.4478 8.9 66.9284 9.30133 67.2644 9.824C67.6004 10.3467 67.7684 10.9673 67.7684 11.686C67.7684 12.4047 67.6004 13.0253 67.2644 13.548C66.9284 14.0707 66.4478 14.472 65.8224 14.752C65.2064 15.032 64.4644 15.172 63.5964 15.172H60.5724L61.3844 14.318V18H59.5644ZM61.3844 14.514L60.5724 13.632H63.5124C64.3151 13.632 64.9171 13.464 65.3184 13.128C65.7291 12.7827 65.9344 12.302 65.9344 11.686C65.9344 11.0607 65.7291 10.58 65.3184 10.244C64.9171 9.908 64.3151 9.74 63.5124 9.74H60.5724L61.3844 8.844V14.514ZM74.0659 12.274H78.9379V13.772H74.0659V12.274ZM74.2059 16.474H79.7359V18H72.3859V8.2H79.5399V9.726H74.2059V16.474ZM84.5648 18V8.2H86.0628L92.2088 15.746H91.4668V8.2H93.2728V18H91.7748L85.6288 10.454H86.3708V18H84.5648ZM101.737 18.14C100.971 18.14 100.239 18.0327 99.5388 17.818C98.8388 17.594 98.2835 17.3093 97.8728 16.964L98.5028 15.55C98.8948 15.858 99.3801 16.1147 99.9588 16.32C100.537 16.5253 101.13 16.628 101.737 16.628C102.25 16.628 102.665 16.572 102.983 16.46C103.3 16.348 103.533 16.1987 103.683 16.012C103.832 15.816 103.907 15.5967 103.907 15.354C103.907 15.0553 103.799 14.8173 103.585 14.64C103.37 14.4533 103.09 14.3087 102.745 14.206C102.409 14.094 102.031 13.9913 101.611 13.898C101.2 13.8047 100.785 13.6973 100.365 13.576C99.9541 13.4453 99.5761 13.282 99.2308 13.086C98.8948 12.8807 98.6195 12.61 98.4048 12.274C98.1901 11.938 98.0828 11.5087 98.0828 10.986C98.0828 10.454 98.2228 9.96867 98.5028 9.53C98.7921 9.082 99.2261 8.72733 99.8048 8.466C100.393 8.19533 101.135 8.06 102.031 8.06C102.619 8.06 103.202 8.13467 103.781 8.284C104.359 8.43333 104.863 8.648 105.293 8.928L104.719 10.342C104.28 10.0807 103.827 9.88933 103.361 9.768C102.894 9.63733 102.446 9.572 102.017 9.572C101.513 9.572 101.102 9.63267 100.785 9.754C100.477 9.87533 100.248 10.034 100.099 10.23C99.9588 10.426 99.8888 10.65 99.8888 10.902C99.8888 11.2007 99.9915 11.4433 100.197 11.63C100.411 11.8073 100.687 11.9473 101.023 12.05C101.368 12.1527 101.751 12.2553 102.171 12.358C102.591 12.4513 103.006 12.5587 103.417 12.68C103.837 12.8013 104.215 12.96 104.551 13.156C104.896 13.352 105.171 13.618 105.377 13.954C105.591 14.29 105.699 14.7147 105.699 15.228C105.699 15.7507 105.554 16.236 105.265 16.684C104.985 17.1227 104.551 17.4773 103.963 17.748C103.375 18.0093 102.633 18.14 101.737 18.14ZM111.984 12.274H116.856V13.772H111.984V12.274ZM112.124 16.474H117.654V18H110.304V8.2H117.458V9.726H112.124V16.474ZM131.14 18V9.74H127.892V8.2H136.208V9.74H132.96V18H131.14ZM140.373 18V8.2H144.405C145.273 8.2 146.015 8.34 146.631 8.62C147.257 8.9 147.737 9.30133 148.073 9.824C148.409 10.3467 148.577 10.9673 148.577 11.686C148.577 12.4047 148.409 13.0253 148.073 13.548C147.737 14.0613 147.257 14.458 146.631 14.738C146.015 15.0087 145.273 15.144 144.405 15.144H141.381L142.193 14.318V18H140.373ZM146.785 18L144.307 14.444H146.253L148.745 18H146.785ZM142.193 14.514L141.381 13.646H144.321C145.124 13.646 145.726 13.4733 146.127 13.128C146.538 12.7827 146.743 12.302 146.743 11.686C146.743 11.0607 146.538 10.58 146.127 10.244C145.726 9.908 145.124 9.74 144.321 9.74H141.381L142.193 8.844V14.514ZM152.028 18L156.438 8.2H158.23L162.654 18H160.75L156.956 9.166H157.684L153.904 18H152.028ZM154.058 15.732L154.548 14.304H159.84L160.33 15.732H154.058ZM171.099 18.14C170.353 18.14 169.657 18.0187 169.013 17.776C168.379 17.524 167.823 17.174 167.347 16.726C166.881 16.2687 166.517 15.732 166.255 15.116C165.994 14.5 165.863 13.828 165.863 13.1C165.863 12.372 165.994 11.7 166.255 11.084C166.517 10.468 166.885 9.936 167.361 9.488C167.837 9.03067 168.393 8.68067 169.027 8.438C169.662 8.186 170.357 8.06 171.113 8.06C171.916 8.06 172.649 8.2 173.311 8.48C173.974 8.75067 174.534 9.15667 174.991 9.698L173.815 10.804C173.461 10.4213 173.064 10.1367 172.625 9.95C172.187 9.754 171.711 9.656 171.197 9.656C170.684 9.656 170.213 9.74 169.783 9.908C169.363 10.076 168.995 10.314 168.677 10.622C168.369 10.93 168.127 11.294 167.949 11.714C167.781 12.134 167.697 12.596 167.697 13.1C167.697 13.604 167.781 14.066 167.949 14.486C168.127 14.906 168.369 15.27 168.677 15.578C168.995 15.886 169.363 16.124 169.783 16.292C170.213 16.46 170.684 16.544 171.197 16.544C171.711 16.544 172.187 16.4507 172.625 16.264C173.064 16.068 173.461 15.774 173.815 15.382L174.991 16.502C174.534 17.034 173.974 17.44 173.311 17.72C172.649 18 171.911 18.14 171.099 18.14ZM181.159 15.69L181.061 13.534L186.199 8.2H188.243L183.973 12.736L182.965 13.842L181.159 15.69ZM179.535 18V8.2H181.355V18H179.535ZM186.367 18L182.615 13.534L183.819 12.204L188.495 18H186.367ZM194.214 12.274H199.086V13.772H194.214V12.274ZM194.354 16.474H199.884V18H192.534V8.2H199.688V9.726H194.354V16.474ZM204.713 18V8.2H208.745C209.613 8.2 210.355 8.34 210.971 8.62C211.597 8.9 212.077 9.30133 212.413 9.824C212.749 10.3467 212.917 10.9673 212.917 11.686C212.917 12.4047 212.749 13.0253 212.413 13.548C212.077 14.0613 211.597 14.458 210.971 14.738C210.355 15.0087 209.613 15.144 208.745 15.144H205.721L206.533 14.318V18H204.713ZM211.125 18L208.647 14.444H210.593L213.085 18H211.125ZM206.533 14.514L205.721 13.646H208.661C209.464 13.646 210.066 13.4733 210.467 13.128C210.878 12.7827 211.083 12.302 211.083 11.686C211.083 11.0607 210.878 10.58 210.467 10.244C210.066 9.908 209.464 9.74 208.661 9.74H205.721L206.533 8.844V14.514Z" fill="#4B7FDE"/>
<rect x="10" y="3" width="4" height="18" rx="2" fill="#4B7FDE" stroke="#4B7FDE" stroke-width="1.5"/>
<rect x="2" y="8" width="4" height="13" rx="2" fill="#4B7FDE" stroke="#4B7FDE" stroke-width="1.5"/>
<rect x="18" y="8" width="4" height="13" rx="2" fill="#4B7FDE" stroke="#4B7FDE" stroke-width="1.5"/>
</svg>
